# xmcd
#
# Track frame offsets: 
#        150
#        16297
#        29242
#        53860
#        75335
#        87245
#        109382
#        122970
#        132835
#        150615
#        167462
#        185045
#        198135
#
# Disc length: 2830 seconds
#
# Revision: 1
# Processed by: cddbd v1.5.2PL0 Copyright (c) Steve Scherf et al.
# Submitted via: ExactAudioCopy v0.99pb5
#
DISCID=a80b0c0d
DTITLE=Kenny Blue Ray - Pull The Strings
DYEAR=1996
DGENRE=Blues
TTITLE0=Rock 'n' Ray
TTITLE1=Mudbugs And Shrimp
TTITLE2=Pull The Strings
TTITLE3=Baby Pleas (Don't Lie To Me)
TTITLE4=Blues For Peter Green
TTITLE5=Stangin'
TTITLE6=Goin' Down Slow
TTITLE7=Up Jumped The Gator!
TTITLE8=Nightmare In North Beach
TTITLE9=Angels In Houston
TTITLE10=Let Me Prove It To You
TTITLE11=Pullin' For Michael
TTITLE12=Little Village
EXTD=
EXTT0=
EXTT1=
EXTT2=
EXTT3=
EXTT4=
EXTT5=
EXTT6=
EXTT7=
EXTT8=
EXTT9=
EXTT10=
EXTT11=
EXTT12=
PLAYORDER=
